<?xml version="1.0" encoding="iso-8859-1"?>
<!-- Generator: Adobe Illustrator 19.0.0, SVG Export Plug-In . SVG Version: 6.00 Build 0)  -->
<svg version="1.1" id="Layer_1" xmlns="http://www.w3.org/2000/svg" xmlns:xlink="http://www.w3.org/1999/xlink" x="0px" y="0px"
	 viewBox="0 0 512 512" style="enable-background:new 0 0 512 512;" xml:space="preserve">
<g>
	<g>
		<path d="M489.739,0H22.261C13.044,0,5.565,7.473,5.565,16.696v478.609c0,9.223,7.479,16.696,16.696,16.696h467.478
			c9.217,0,16.696-7.473,16.696-16.696V16.696C506.435,7.473,498.956,0,489.739,0z M299.848,66.109
			c6.521-6.521,17.087-6.521,23.609,0l10.456,10.456l10.457-10.457c6.521-6.521,17.087-6.521,23.609,0
			c6.521,6.516,6.521,17.092,0,23.609l-17.37,17.37v21.571c0,9.223-7.479,16.696-16.696,16.696c-9.217,0-16.696-7.473-16.696-16.696
			v-21.571l-17.369-17.369C293.326,83.201,293.326,72.625,299.848,66.109z M89.044,222.609h55.652
			c6.749,0,12.837,4.065,15.423,10.305c2.587,6.24,1.152,13.424-3.62,18.196l-27.152,27.152h15.348
			c9.217,0,16.696,7.473,16.696,16.696c0,9.223-7.479,16.696-16.696,16.696H89.044c-6.75,0-12.837-4.065-15.423-10.305
			c-2.587-6.24-1.152-13.424,3.62-18.196L104.391,256H89.044c-9.217,0-16.696-7.473-16.696-16.696
			C72.348,230.082,79.826,222.609,89.044,222.609z M442.923,408.446c-4.609,7.995-14.826,10.717-22.804,6.108L256,319.799
			L91.826,414.582c-2.63,1.522-5.5,2.239-8.337,2.245c-5.761,0-11.381-2.994-14.467-8.353c-4.609-7.984-1.88-18.196,6.108-22.804
			l164.174-94.785V83.478c0-9.223,7.479-16.696,16.696-16.696c9.217,0,16.696,7.473,16.696,16.696v207.408l164.119,94.756
			C444.804,390.25,447.533,400.462,442.923,408.446z M440.326,288.718c6.521,6.516,6.521,17.092,0,23.609
			c-3.261,3.261-7.533,4.892-11.804,4.892s-8.544-1.631-11.804-4.892l-10.457-10.457l-10.457,10.457
			c-3.261,3.261-7.533,4.892-11.804,4.892s-8.544-1.631-11.804-4.892c-6.521-6.516-6.521-17.092,0-23.609l10.457-10.457
			l-10.457-10.457c-6.521-6.516-6.521-17.092,0-23.609c6.521-6.521,17.087-6.521,23.609,0l10.457,10.457l10.457-10.457
			c6.521-6.521,17.087-6.521,23.609,0c6.521,6.516,6.521,17.092,0,23.609l-10.458,10.457L440.326,288.718z"/>
	</g>
</g>
<g>
</g>
<g>
</g>
<g>
</g>
<g>
</g>
<g>
</g>
<g>
</g>
<g>
</g>
<g>
</g>
<g>
</g>
<g>
</g>
<g>
</g>
<g>
</g>
<g>
</g>
<g>
</g>
<g>
</g>
</svg>
